<?xml version="1.0" standalone="no"?><!DOCTYPE svg PUBLIC "-//W3C//DTD SVG 1.1//EN"
        "http://www.w3.org/Graphics/SVG/1.1/DTD/svg11.dtd">
<svg t="1525941934271" class="icon" style="" viewBox="0 0 1024 1024" version="1.1" xmlns="http://www.w3.org/2000/svg"
     p-id="2872"
     width="120" height="120">
    <defs>
        <style type="text/css"></style>
    </defs>
    <path d="M860.25 447.381c-46.090 0-84.853 31.29-96.254 73.781h-76.246c-5.494-37.57-22.205-71.499-46.633-98.267v0l96.433-139.515c9.559 5.073 20.459 7.957 32.035 7.957 37.804 0 68.45-30.645 68.45-68.45s-30.645-68.45-68.45-68.45c-37.804 0-68.45 30.645-68.45 68.45 0 19.642 8.285 37.338 21.537 49.821l-120.692 117.595c-28.547-17.811-62.26-28.114-98.388-28.114-39.451 0-76.028 12.285-106.135 33.221l-89.004-84.257-0.073 0.073c4.661-9.635 7.28-20.445 7.28-31.865 0-40.455-32.797-73.253-73.253-73.253s-73.253 32.797-73.253 73.253 32.797 73.252 73.253 73.252c12.332 0 23.943-3.060 34.141-8.444l79.295 90.955c-24.067 31.366-38.382 70.608-38.382 113.198 0 27.365 5.908 53.351 16.514 76.753l-92.429 57.388c-18.829-16.583-43.526-26.662-70.591-26.662-59.026 0-106.877 47.85-106.877 106.877 0 59.027 47.85 106.877 106.877 106.877 59.027 0 106.877-47.85 106.877-106.877 0-10.681-1.587-20.987-4.501-30.716l86.515-65.387c34.139 41.453 85.857 67.885 143.749 67.885 94.452 0 172.464-70.354 184.51-161.516h75.89c11.402 42.491 50.165 73.781 96.254 73.781 55.046 0 99.67-44.624 99.67-99.67s-44.623-99.674-99.669-99.674z"
          p-id="2873" fill="#707070"></path>
</svg>